Coordinates
version=1
nRows=4
nColumns=63
inDegrees=yes

Units are S.I. units (second, meters, Newtons, ...)
If the header above contains a line with 'inDegrees', this indicates whether rotational values are in degrees (yes) or radians (no).

endheader
time	pelvis_tilt	pelvis_list	pelvis_rotation	pelvis_tx	pelvis_ty	pelvis_tz	hip_flexion_r	hip_adduction_r	hip_rotation_r	knee_angle_r	knee_angle_r_beta	ankle_angle_r	subtalar_angle_r	mtp_angle_r	hip_flexion_l	hip_adduction_l	hip_rotation_l	knee_angle_l	knee_angle_l_beta	ankle_angle_l	subtalar_angle_l	mtp_angle_l	L5_S1_Flex_Ext	L5_S1_Lat_Bending	L5_S1_axial_rotation	L4_L5_Flex_Ext	L4_L5_Lat_Bending	L4_L5_axial_rotation	L3_L4_Flex_Ext	L3_L4_Lat_Bending	L3_L4_axial_rotation	L2_L3_Flex_Ext	L2_L3_Lat_Bending	L2_L3_axial_rotation	L1_L2_Flex_Ext	L1_L2_Lat_Bending	L1_L2_axial_rotation	L1_T12_Flex_Ext	L1_T12_Lat_Bending	L1_T12_axial_rotation	Abs_r3	Abs_r2	Abs_r1	Abs_t1	Abs_t2	neck_flexion	neck_bending	neck_rotation	arm_flex_r	arm_add_r	arm_rot_r	elbow_flex_r	pro_sup_r	wrist_flex_r	wrist_dev_r	arm_flex_l	arm_add_l	arm_rot_l	elbow_flex_l	pro_sup_l	wrist_flex_l	wrist_dev_l
      3.05000000	     -0.72839943	      0.90501749	     92.04929312	      0.25365030	      0.97716180	      0.50661907	     -5.44170711	     -0.94918124	     -3.73669917	     13.47629122	      0.23520565	     33.34075517	     -4.78967207	      0.00000000	     -8.09587540	      1.97424580	     12.15035442	      5.31542326	      0.09277164	     32.56250611	     -9.86213258	      0.00000000	      0.00898811	     -0.08815254	     -1.89579976	      0.01669182	     -0.11724288	     -2.01428724	      0.01476657	     -0.21433409	     -2.01428724	      0.01027251	     -0.21433409	     -1.65882479	      0.00834636	     -0.17976066	     -1.54033730	      0.00513581	     -0.13654829	     -1.42184982	      0.06420117	     -0.99719919	    -10.54386952	      0.00000000	      0.00000000	      3.91626843	      0.62623147	     -5.65044358	     42.40424551	     -3.73219976	     36.26876939	    149.83373924	     88.83600585	      3.98322261	     -2.00117093	     41.52880585	     -5.02438920	     33.42938447	    149.38424005	     88.33883209	    -25.88739883	    -16.29228132
      3.06666667	     -0.78892497	      1.04638127	     91.91700097	      0.25531790	      0.97709989	      0.50601735	     -5.64709283	     -0.91036604	     -3.60380293	     13.43868344	      0.23454927	     33.33389954	     -4.69342036	      0.00000000	     -8.29904740	      1.95030353	     12.02303708	      5.32932735	      0.09301431	     32.66634222	     -9.90865951	      0.00000000	      0.00338365	     -0.09924967	     -1.91116719	      0.00628378	     -0.13200207	     -2.03061514	      0.00555900	     -0.24131566	     -2.03061514	      0.00386718	     -0.24131566	     -1.67227129	      0.00314206	     -0.20238993	     -1.55282334	      0.00193342	     -0.15373774	     -1.43337539	      0.02416908	     -1.12273215	    -10.62933856	      0.00000000	      0.00000000	      4.21734011	      0.68785312	     -5.63135741	     42.46243873	     -3.31481742	     37.22183048	    149.84758196	     88.87746810	      4.33668226	     -2.32939898	     41.17695639	     -5.36739326	     33.05237561	    149.34472845	     88.20349915	    -25.86635112	    -16.35328824
      3.08333333	     -1.00518046	      1.27365676	     91.60349568	      0.25734385	      0.97702364	      0.50546589	     -6.04681163	     -1.04535847	     -3.24205393	     13.09618221	      0.22857150	     33.39870882	     -4.47913945	      0.00000000	     -8.65363585	      2.08941266	     11.64981032	      5.20412566	      0.09082913	     32.63005348	     -9.75961986	      0.00000000	     -0.04105530	     -0.11953907	     -1.88783817	     -0.07624379	     -0.15898697	     -2.00582806	     -0.06744974	     -0.29064730	     -2.00582806	     -0.04692210	     -0.29064730	     -1.65185840	     -0.03812395	     -0.24376408	     -1.53386851	     -0.02345900	     -0.18516602	     -1.41587863	     -0.29325387	     -1.35224990	    -10.49958955	      0.00000000	      0.00000000	      5.33697238	      0.62897687	     -4.55333945	     42.51845376	     -2.92191439	     38.27158430	    149.85260680	     88.94251743	      4.13359400	     -2.08245690	     40.82034956	     -6.11291692	     32.12096948	    149.31460420	     87.89185602	    -25.03003796	    -15.90302153
      3.10000000	     -1.05430652	      1.26079646	     91.31538673	      0.25923866	      0.97651046	      0.50449603	     -6.13230347	     -1.01426454	     -2.84745382	     12.92877584	      0.22564971	     33.52106574	     -4.36929405	      0.00000000	     -8.66056955	      2.04912705	     10.45193346	      5.32117734	      0.09287206	     33.11347872	     -8.45381184	      0.00000000	     -0.06091936	     -0.11818980	     -1.90482287	     -0.11313334	     -0.15719244	     -2.02387430	     -0.10008441	     -0.28736669	     -2.02387430	     -0.06962473	     -0.28736669	     -1.66672002	     -0.05656972	     -0.24101265	     -1.54766859	     -0.03480932	     -0.18307601	     -1.42861716	     -0.43514088	     -1.33698670	    -10.59405338	      0.00000000	      0.00000000	      6.48281943	      0.67893357	     -3.57100413	     42.47307161	     -2.69981642	     39.41358004	    149.85631701	     89.01132493	      3.21134029	     -1.31535818	     39.89689818	     -6.93210983	     28.66236230	    149.23039775	     87.27182391	    -16.99823139	    -13.60920625
